<?xml version="1.0" encoding="utf-8"?>
<!-- Generator: Adobe Illustrator 21.0.0, SVG Export Plug-In . SVG Version: 6.00 Build 0)  -->
<svg version="1.1" xmlns="http://www.w3.org/2000/svg" xmlns:xlink="http://www.w3.org/1999/xlink" x="0px" y="0px"
	 viewBox="0 0 525.4 1500" style="enable-background:new 0 0 525.4 1500;" xml:space="preserve">
<style type="text/css">
	.st0{display:none;}
	.st1{display:inline;}
</style>
<g id="Warstwa_2" class="st0">
</g>
<g id="Warstwa_1">
	<g>
		<g class="st0">
			<path class="st1" d="M320.1,1099.8v185.5l115.7-200.5C398.9,1094.6,360.1,1099.8,320.1,1099.8z"/>
			<path class="st1" d="M712.3,420.6L712.3,420.6L403.6,955.1c80.4-21.8,148.3-74.2,190.2-144l279.1-483.2H641.2
				C668.7,355.5,692.6,386.7,712.3,420.6z"/>
			<path class="st1" d="M320.1,327.9v92.8H545C487.3,363.3,407.9,327.9,320.1,327.9z"/>
			<path class="st1" d="M633.6,516.1l43.3-75.1l0.6-0.3l11.3-19.7c-76.1-123.8-212.7-206.4-368.7-206.4v92.8
				C461.2,307.5,582.2,393.6,633.6,516.1z"/>
			<path class="st1" d="M752.4,647c0-21-1.5-41.8-4.4-62L617.3,811.4C559.4,915.9,448,986.6,320.1,986.6v72.3l11.7,20.3
				C565.2,1073,752.4,881.8,752.4,647z"/>
		</g>
	</g>
	<path d="M0.1,185.5v929.2c7.5,84.9,24.4,152,50.7,201.2c26.3-49.2,43.2-116.3,50.7-201.2V185.5C68.4,168.5,34.7,168.1,0.1,185.5z
		 M91.5,1007.5H10v-39.3h81.5V1007.5z"/>
	<path d="M177.7,95v1082.3c9.3,98.9,30.3,177.1,63,234.4c32.7-57.3,53.7-135.4,63-234.4V95C262.6,75.1,220.6,74.7,177.7,95z
		 M291.3,1052.3H190v-45.8h101.3V1052.3z"/>
	<path d="M379.9,14.1v1219.1c10.7,111.4,35,199.4,72.7,264c37.8-64.6,62-152.5,72.7-264V14.1C478-8.2,429.5-8.8,379.9,14.1z
		 M511.1,1092.4h-117v-51.6h117V1092.4z"/>
</g>
</svg>
